<svg width="512" height="512" viewBox="0 0 512 512" fill="none" xmlns="http://www.w3.org/2000/svg">
<mask id="path-1-outside-1_4_8" maskUnits="userSpaceOnUse" x="8.06738" y="21" width="497" height="426" fill="black">
<rect fill="white" x="8.06738" y="21" width="497" height="426"/>
<path fill-rule="evenodd" clip-rule="evenodd" d="M46.1052 31L256.08 31L344.5 31H466.056C484.032 31 497.352 47.6993 493.355 65.2261L417.626 397.268C412.438 420.015 392.208 436.15 368.877 436.15L256.08 436.15H143.283C119.952 436.15 99.7228 420.015 94.535 397.268L18.8062 65.2261C14.8088 47.6993 28.1283 31 46.1052 31Z"/>
</mask>
<path fill-rule="evenodd" clip-rule="evenodd" d="M46.1052 31L256.08 31L344.5 31H466.056C484.032 31 497.352 47.6993 493.355 65.2261L417.626 397.268C412.438 420.015 392.208 436.15 368.877 436.15L256.08 436.15H143.283C119.952 436.15 99.7228 420.015 94.535 397.268L18.8062 65.2261C14.8088 47.6993 28.1283 31 46.1052 31Z" fill="#FFDC6F"/>
<path d="M256.08 31L256.08 21L256.08 21L256.08 31ZM46.1052 31L46.1052 41L46.1052 31ZM344.5 31L344.5 41L344.5 41L344.5 31ZM493.355 65.2261L483.605 63.0025L493.355 65.2261ZM417.626 397.268L427.375 399.492L427.375 399.492L417.626 397.268ZM368.877 436.15L368.877 446.15L368.877 446.15L368.877 436.15ZM256.08 436.15L256.08 426.15L256.08 426.15L256.08 436.15ZM94.535 397.268L104.285 395.044L104.285 395.044L94.535 397.268ZM18.8062 65.2261L9.05651 67.4497L9.05651 67.4497L18.8062 65.2261ZM256.08 41L46.1052 41L46.1052 21L256.08 21L256.08 41ZM256.08 21L344.5 21L344.5 41L256.08 41L256.08 21ZM344.5 21H466.056V41H344.5V21ZM466.056 21C490.453 21 508.529 43.6633 503.104 67.4497L483.605 63.0025C486.175 51.7353 477.612 41 466.056 41V21ZM503.104 67.4497L427.375 399.492L407.876 395.044L483.605 63.0025L503.104 67.4497ZM427.375 399.492C421.15 426.788 396.874 446.15 368.877 446.15V426.15C387.542 426.15 403.726 413.242 407.876 395.044L427.375 399.492ZM368.877 446.15L256.08 446.15L256.08 426.15L368.877 426.15L368.877 446.15ZM143.283 426.15H256.08V446.15H143.283V426.15ZM104.285 395.044C108.435 413.242 124.619 426.15 143.283 426.15V446.15C115.286 446.15 91.0107 426.788 84.7853 399.492L104.285 395.044ZM28.5558 63.0025L104.285 395.044L84.7853 399.492L9.05651 67.4497L28.5558 63.0025ZM46.1052 41C34.5486 41 25.9861 51.7353 28.5558 63.0025L9.05651 67.4497C3.63154 43.6633 21.708 21 46.1052 21L46.1052 41Z" fill="black" mask="url(#path-1-outside-1_4_8)"/>
<path fill-rule="evenodd" clip-rule="evenodd" d="M343.649 436.15H256.08H168.511L177.275 473.311C180.47 486.855 192.559 496.425 206.474 496.425H256.08H305.686C319.602 496.425 331.691 486.855 334.885 473.311L343.649 436.15Z" fill="#050B0F"/>
<mask id="mask0_4_8" style="mask-type:alpha" maskUnits="userSpaceOnUse" x="18" y="31" width="477" height="406">
<path d="M256.08 31L344.5 31H466.055C484.032 31 497.352 47.6993 493.354 65.2261L417.625 397.268C412.438 420.015 392.208 436.15 368.877 436.15H256.08V31Z" fill="#FFDC6F"/>
<path d="M256.08 31L46.1049 31C28.128 31 14.8085 47.6993 18.8059 65.2261L94.5347 397.268C99.7226 420.015 119.952 436.15 143.283 436.15H256.08V31Z" fill="#FFDC6F"/>
</mask>
<g mask="url(#mask0_4_8)">
<path d="M256.08 163.334H35.2534L52.5101 275.01H256.08V163.334Z" fill="#EDEDED"/>
<path d="M256.08 163.334H476.908L459.651 275.431H256.08V163.334Z" fill="#EDEDED"/>
</g>
<circle cx="255.589" cy="170.02" r="112.589" fill="url(#paint0_linear_4_8)"/>
<path d="M368.178 170.02C368.178 232.202 317.771 282.61 255.589 282.61C193.408 282.61 143 232.202 143 170.02C143 107.839 193.408 57.4312 255.589 57.4312C317.771 57.4312 368.178 107.839 368.178 170.02ZM155.844 170.02C155.844 225.108 200.501 269.766 255.589 269.766C310.677 269.766 355.335 225.108 355.335 170.02C355.335 114.932 310.677 70.2747 255.589 70.2747C200.501 70.2747 155.844 114.932 155.844 170.02Z" fill="#050B0F"/>
<path d="M333.351 181.935C323.809 193.384 294.91 134.704 257.496 134.704C220.082 134.704 197.862 190.044 186.412 184.797C156.834 163.818 208.358 85.5789 257.019 88.9054C333.351 97.9692 337.167 175.732 333.351 181.935Z" fill="white" fill-opacity="0.77"/>
<path d="M221 273H256V412V412C236.67 412 221 396.33 221 377V273Z" fill="#050B0F"/>
<path d="M256 273H291V377C291 396.33 275.33 412 256 412V412V273Z" fill="#050B0F"/>
<defs>
<linearGradient id="paint0_linear_4_8" x1="255.589" y1="57.4312" x2="255.589" y2="282.61" gradientUnits="userSpaceOnUse">
<stop stop-color="#AFFAFF"/>
<stop offset="1" stop-color="#3DDBE6"/>
</linearGradient>
</defs>
</svg>
