<svg width="512" height="512" viewBox="0 0 512 512" fill="none" xmlns="http://www.w3.org/2000/svg">
<path d="M256.213 157.632H204.669C196.651 157.632 185.578 165.291 185.578 177.895H101.39C97.764 177.895 91.4635 184.388 92.0365 189.544L146.635 425.692C148.327 435.393 158.428 447.892 173.282 452.386C180.595 454.598 188.24 456.268 194.686 460.372L256.213 157.632Z" fill="white"/>
<path d="M256.336 301.109H101.196L101.743 303.507H256.336V301.109Z" fill="white"/>
<path d="M194.686 460.372L201.425 480.004C204.433 492.764 215.361 496.809 227.197 496.809H256.406L199.506 436.655L194.686 460.372Z" fill="white"/>
<path d="M256.213 92.8876H248.195V157.632H256.213V92.8876Z" fill="white"/>
<path d="M118.381 316.155C105.796 327.544 95.4343 392.457 109.218 423.63L127.927 420.04C115.101 381.198 125.69 346.2 133.081 323.22L118.381 316.155Z" fill="white"/>
<path d="M110.554 420.995C109.872 420.508 108.913 420.784 108.594 421.56L102.235 437.056C101.962 437.721 102.169 438.486 102.739 438.922L119.718 451.932C119.969 450.274 120.605 448.007 119.718 446.585L113.8 435.509C113.119 436.551 113.141 434.453 113.8 435.509L120.481 425.197L110.554 420.995Z" fill="white"/>
<path d="M110.554 420.995C114.692 419.963 123.536 413.013 126.209 414.693L141.672 427.679C142.481 428.364 138.661 436.829 138.236 437.8L133.463 448.495C132.723 447.498 131.655 446.801 131.197 445.827C130.862 445.114 130.932 444.281 130.834 443.499L130.636 441.914C130.612 441.718 130.606 441.523 130.627 441.327C130.84 439.404 132.007 431.872 130.981 431.308L120.481 425.197L110.554 420.995Z" fill="white"/>
<path d="M113.406 281.972C113.406 281.972 102.707 289.061 99.6727 295.53C97.4324 300.307 98.2586 310.388 98.6308 314.15C98.6813 314.661 99.0677 315.069 99.5735 315.156L121.972 319.019L113.406 281.972Z" fill="white"/>
<path d="M256.788 157.685H308.332C316.35 157.685 327.422 165.347 327.422 177.956H411.61C415.236 177.956 421.536 184.452 420.963 189.61L366.365 425.854C364.673 435.559 354.573 448.062 339.72 452.558C332.406 454.772 324.76 456.443 318.315 460.548L256.788 157.685Z" fill="white"/>
<path d="M256.664 301.22H411.804L411.257 303.619H256.664V301.22Z" fill="white"/>
<path d="M318.315 460.548L311.575 480.188C308.567 492.953 297.639 497 285.803 497H256.215L224.334 465.3L313.494 436.821L318.315 460.548Z" fill="white"/>
<path d="M256.788 92.9144H264.805V157.685H256.788V92.9144Z" fill="white"/>
<path d="M394.619 316.272C407.204 327.667 417.566 392.605 403.782 423.791L385.073 420.2C397.899 381.342 387.31 346.33 379.919 323.341L394.619 316.272Z" fill="white"/>
<path d="M402.446 421.155C403.128 420.668 404.087 420.944 404.406 421.72L410.766 437.224C411.038 437.888 410.832 438.653 410.262 439.089L393.282 452.105C393.031 450.446 392.396 448.178 393.282 446.755L399.2 435.675C399.881 436.717 399.859 434.618 399.2 435.675L392.519 425.358L402.446 421.155Z" fill="white"/>
<path d="M402.446 421.155C398.308 420.123 389.464 413.17 386.792 414.851L371.328 427.842C370.519 428.527 374.34 436.995 374.765 437.967L379.537 448.666C380.277 447.669 381.346 446.971 381.803 445.996C382.138 445.283 382.068 444.451 382.166 443.67L382.364 442.082C382.389 441.887 382.394 441.691 382.373 441.495C382.16 439.572 380.993 432.037 382.019 431.472L392.519 425.358L402.446 421.155Z" fill="white"/>
<path d="M399.594 282.075C399.594 282.075 410.293 289.168 413.327 295.639C415.568 300.418 414.741 310.504 414.369 314.267C414.319 314.778 413.932 315.186 413.427 315.273L391.028 319.138L399.594 282.075Z" fill="white"/>
<path d="M185.443 187.299C185.443 176.752 193.99 168.202 204.534 168.202H309.384C319.927 168.202 328.474 176.752 328.474 187.299V263.72H185.443V187.299Z" fill="white"/>
<path d="M304.503 233.309C304.503 259.354 283.395 280.468 257.358 280.468C231.321 280.468 210.214 259.354 210.214 233.309C210.214 207.263 231.321 186.149 257.358 186.149C283.395 186.149 304.503 207.263 304.503 233.309Z" fill="url(#paint0_linear_180_727)"/>
<path d="M304.503 233.309C304.503 259.354 283.395 280.468 257.358 280.468C231.321 280.468 210.214 259.354 210.214 233.309C210.214 207.263 231.321 186.149 257.358 186.149C283.395 186.149 304.503 207.263 304.503 233.309ZM215.592 233.309C215.592 256.383 234.292 275.088 257.358 275.088C280.425 275.088 299.125 256.383 299.125 233.309C299.125 210.234 280.425 191.529 257.358 191.529C234.292 191.529 215.592 210.234 215.592 233.309Z" fill="white"/>
<path d="M289.92 238.299C285.924 243.095 273.823 218.516 258.157 218.516C242.491 218.516 233.187 241.696 228.392 239.498C216.007 230.711 237.582 197.939 257.957 199.333C289.92 203.129 291.518 235.701 289.92 238.299Z" fill="white" fill-opacity="0.77"/>
<path d="M240.978 276.472H258.157V334.622C248.669 334.622 240.978 326.928 240.978 317.436V276.472Z" fill="white"/>
<path d="M258.157 276.472H275.337V317.436C275.337 326.928 267.646 334.622 258.157 334.622V276.472Z" fill="white"/>
<path d="M274.922 88.1403C274.922 98.3707 266.631 106.664 256.404 106.664C246.177 106.664 237.886 98.3707 237.886 88.1403C237.886 77.9099 246.177 69.6165 256.404 69.6165C266.631 69.6165 274.922 77.9099 274.922 88.1403Z" fill="white"/>
<path d="M225.758 125.565C223.901 127.861 220.513 128.233 218.414 126.157C211.816 119.629 206.997 111.479 204.47 102.484C201.458 91.7667 201.847 80.3787 205.583 69.8923C209.319 59.4059 216.218 50.3385 225.326 43.9421C234.434 37.5458 245.303 34.1362 256.432 34.184C267.561 34.2319 278.4 37.7349 287.453 44.2093C296.507 50.6837 303.327 59.8102 306.972 70.3283C310.618 80.8465 310.909 92.2374 307.806 102.928C305.201 111.901 300.312 120.009 293.658 126.48C291.541 128.539 288.157 128.137 286.319 125.826L285.69 125.034C283.853 122.722 284.266 119.38 286.324 117.264C291.11 112.345 294.639 106.307 296.568 99.6636C298.996 91.301 298.768 82.3906 295.916 74.163C293.064 65.9354 287.729 58.7964 280.648 53.7318C273.566 48.6673 265.087 45.9272 256.382 45.8897C247.677 45.8523 239.175 48.5194 232.05 53.5228C224.925 58.5263 219.528 65.6191 216.606 73.8219C213.684 82.0247 213.379 90.9328 215.735 99.316C217.607 105.976 221.084 112.044 225.827 117.004C227.868 119.137 228.252 122.483 226.395 124.779L225.758 125.565Z" fill="white"/>
<path d="M213.445 139.667C211.398 142.142 207.715 142.506 205.411 140.268C196.049 131.176 189.27 119.709 185.833 107.043C181.888 92.5013 182.541 77.0938 187.704 62.9384C192.867 48.783 202.286 36.5745 214.666 27.991C227.046 19.4075 241.78 14.8702 256.843 15.0028C271.905 15.1354 286.557 19.9314 298.785 28.7316C311.012 37.5318 320.215 49.9041 325.128 64.1482C330.041 78.3923 330.423 93.8089 326.222 108.279C322.563 120.882 315.583 132.229 306.063 141.155C303.72 143.351 300.043 142.923 298.041 140.412C296.039 137.901 296.473 134.26 298.782 132.028C306.442 124.626 312.066 115.33 315.055 105.035C318.586 92.8725 318.265 79.9146 314.135 67.9421C310.006 55.9697 302.271 45.5705 291.993 38.1737C281.716 30.777 269.401 26.7459 256.741 26.6345C244.08 26.523 231.696 30.3367 221.29 37.5513C210.884 44.7659 202.967 55.0273 198.628 66.9252C194.288 78.8231 193.739 91.7734 197.056 103.996C199.863 114.342 205.323 123.736 212.851 131.272C215.12 133.544 215.491 137.191 213.445 139.667Z" fill="white"/>
<path d="M256.597 162.426H312.34C316.628 162.426 320.389 165.286 321.537 169.419L324.368 179.613H407.753C414.617 179.613 419.702 185.991 418.176 192.685L367.103 416.694C362.428 437.197 344.2 451.741 323.177 451.741H256.597V162.426Z" fill="#FFDC6F"/>
<path d="M256.597 451.741H315.395L310.984 470.451C307.976 483.21 296.59 492.226 283.485 492.226H256.597V451.741Z" fill="#050B0F"/>
<path d="M256.597 100.553H262.706V162.426H256.597V100.553Z" fill="#050B0F"/>
<path d="M390.421 313.29C402.448 324.175 415.62 391.777 402.448 421.569L387.939 419.849C400.196 382.729 392.903 355.303 385.839 333.342L390.421 313.29Z" fill="#050B0F"/>
<path d="M395.136 415.976C399.091 416.962 402.33 419.791 403.842 423.577L408.917 436.288C409.292 437.229 409.005 438.306 408.211 438.935L393.862 450.297C393.622 448.713 393.955 447.096 394.803 445.736L399.997 437.405C400.627 436.395 400.613 435.112 399.963 434.116L393.197 423.758L395.136 415.976Z" fill="#050B0F"/>
<path d="M395.136 415.976C391.182 414.99 386.995 415.966 383.883 418.599L373.436 427.439C372.663 428.094 372.411 429.179 372.817 430.107L380.154 446.878C381.11 445.593 381.574 444.008 381.464 442.409L380.788 432.614C380.706 431.427 381.32 430.3 382.362 429.727L393.197 423.758L395.136 415.976Z" fill="#050B0F"/>
<path d="M397.209 284.645C397.209 284.645 406.994 290.494 409.893 296.676C412.218 301.632 411.601 309.964 411.327 312.632C411.274 313.139 410.883 313.533 410.379 313.609L389.657 316.727L397.209 284.645Z" fill="#050B0F"/>
<path d="M256.597 162.426H200.853C196.565 162.426 192.804 165.286 191.656 169.419L188.825 179.613H105.44C98.5762 179.613 93.4907 185.991 95.0169 192.685L146.09 416.694C150.765 437.197 168.993 451.741 190.016 451.741H256.597V162.426Z" fill="#FFDC6F"/>
<path d="M256.597 251.035H108.322L119.909 301.641H256.597V251.035Z" fill="white"/>
<path d="M256.581 251.035H108.321L108.844 253.326H256.581V251.035Z" fill="#050B0F"/>
<path d="M256.715 299.54H108.454L108.977 301.832H256.715V299.54Z" fill="#050B0F"/>
<path d="M256.597 251.035H404.872L393.285 301.832H256.597V251.035Z" fill="white"/>
<path d="M256.597 451.741H197.798L202.209 470.451C205.218 483.21 216.603 492.226 229.709 492.226H256.597V451.741Z" fill="#050B0F"/>
<path d="M256.597 100.553H250.488V162.426H256.597V100.553Z" fill="#050B0F"/>
<path d="M122.772 313.29C110.745 324.175 97.5727 391.777 110.745 421.569L125.254 419.849C112.997 382.729 120.29 355.303 127.354 333.342L122.772 313.29Z" fill="#050B0F"/>
<path d="M118.057 415.976C114.102 416.962 110.863 419.791 109.351 423.577L104.277 436.288C103.901 437.229 104.188 438.306 104.982 438.935L119.331 450.297C119.571 448.713 119.238 447.096 118.39 445.736L113.196 437.405C112.567 436.395 112.58 435.112 113.231 434.116L119.996 423.758L118.057 415.976Z" fill="#050B0F"/>
<path d="M118.057 415.976C122.011 414.99 126.199 415.966 129.31 418.599L139.757 427.439C140.53 428.094 140.782 429.179 140.376 430.107L133.039 446.878C132.083 445.593 131.619 444.008 131.729 442.409L132.405 432.614C132.487 431.427 131.873 430.3 130.831 429.727L119.996 423.758L118.057 415.976Z" fill="#050B0F"/>
<path d="M115.985 284.645C115.985 284.645 106.199 290.494 103.3 296.676C100.976 301.632 101.593 309.964 101.867 312.632C101.919 313.139 102.31 313.533 102.814 313.609L123.536 316.727L115.985 284.645Z" fill="#050B0F"/>
<path d="M256.597 251.035H404.857L404.334 253.326H256.597L256.597 251.035Z" fill="#050B0F"/>
<path d="M256.597 299.54H395.575L395.085 301.832H256.597L256.597 299.54Z" fill="#050B0F"/>
<path d="M187.871 178.849C187.871 168.303 196.418 159.753 206.961 159.753H305.468C316.012 159.753 324.559 168.303 324.559 178.849V251.035H187.871V178.849Z" fill="#7A8183"/>
<path d="M301.65 237.667C301.65 262.558 281.479 282.735 256.597 282.735C231.714 282.735 211.543 262.558 211.543 237.667C211.543 212.777 231.714 192.599 256.597 192.599C281.479 192.599 301.65 212.777 301.65 237.667Z" fill="url(#paint1_linear_180_727)"/>
<path d="M301.65 237.667C301.65 262.558 281.479 282.735 256.597 282.735C231.714 282.735 211.543 262.558 211.543 237.667C211.543 212.777 231.714 192.599 256.597 192.599C281.479 192.599 301.65 212.777 301.65 237.667ZM216.682 237.667C216.682 259.718 234.553 277.594 256.597 277.594C278.641 277.594 296.511 259.718 296.511 237.667C296.511 215.616 278.641 197.74 256.597 197.74C234.553 197.74 216.682 215.616 216.682 237.667Z" fill="#050B0F"/>
<path d="M287.714 242.436C283.896 247.019 272.331 223.531 257.36 223.531C242.388 223.531 233.497 245.683 228.915 243.582C217.079 235.185 237.697 203.866 257.169 205.198C287.714 208.826 289.241 239.954 287.714 242.436Z" fill="white" fill-opacity="0.77"/>
<path d="M240.942 278.916H257.36V334.487C248.293 334.487 240.942 327.134 240.942 318.064V278.916Z" fill="#050B0F"/>
<path d="M257.36 278.916H273.778V318.064C273.778 327.134 266.428 334.487 257.36 334.487V278.916Z" fill="#050B0F"/>
<path d="M271.487 88.7132C271.487 96.9397 264.82 103.609 256.597 103.609C248.373 103.609 241.706 96.9397 241.706 88.7132C241.706 80.4867 248.373 73.8178 256.597 73.8178C264.82 73.8178 271.487 80.4867 271.487 88.7132Z" fill="#050B0F"/>
<path d="M224.613 124.07C223.261 125.582 220.93 125.719 219.519 124.263C213.129 117.664 208.609 109.453 206.462 100.475C204.029 90.3033 204.758 79.631 208.551 69.8847C212.345 60.1385 219.022 51.7827 227.69 45.9343C236.358 40.0858 246.604 37.0234 257.058 37.1563C267.513 37.2892 277.678 40.6112 286.195 46.6781C294.711 52.7451 301.174 61.2679 304.718 71.1074C308.263 80.947 308.72 91.6344 306.03 101.741C303.655 110.662 298.928 118.755 292.372 125.189C290.925 126.609 288.598 126.412 287.285 124.867C285.971 123.321 286.172 121.014 287.602 119.576C293.027 114.123 296.944 107.326 298.934 99.851C301.24 91.1894 300.848 82.0301 297.81 73.5974C294.773 65.1648 289.234 57.8605 281.935 52.6611C274.636 47.4616 265.925 44.6146 256.965 44.5007C248.005 44.3868 239.224 47.0113 231.795 52.0236C224.367 57.0358 218.645 64.1969 215.394 72.5496C212.143 80.9023 211.518 90.0486 213.603 98.766C215.402 106.289 219.146 113.184 224.43 118.773C225.823 120.247 225.965 122.558 224.613 124.07Z" fill="#6CE8F0"/>
<path d="M212.111 138.541C211.056 139.732 209.231 139.846 208.085 138.743C198.575 129.587 191.845 117.901 188.709 105.035C185.345 91.2351 186.276 76.7361 191.378 63.4799C196.479 50.2236 205.508 38.843 217.255 30.862C229.001 22.8809 242.905 18.6803 257.105 18.8228C271.304 18.9653 285.121 23.4441 296.705 31.6593C308.289 39.8745 317.088 51.434 321.923 64.7899C326.758 78.1459 327.398 92.6606 323.758 106.391C320.364 119.191 313.401 130.739 303.709 139.702C302.541 140.783 300.719 140.631 299.688 139.419C298.658 138.207 298.809 136.394 299.973 135.309C308.773 127.11 315.097 116.578 318.189 104.913C321.529 92.3185 320.941 79.0037 316.506 66.7519C312.071 54.5001 304 43.8963 293.373 36.3602C282.747 28.8242 270.072 24.7157 257.047 24.585C244.021 24.4543 231.267 28.3076 220.491 35.6288C209.716 42.9501 201.434 53.3899 196.754 65.5502C192.074 77.7105 191.22 91.0108 194.306 103.67C197.164 115.395 203.275 126.051 211.908 134.425C213.05 135.533 213.166 137.349 212.111 138.541Z" fill="#6CE8F0"/>
<defs>
<linearGradient id="paint0_linear_180_727" x1="256.5" y1="15" x2="256.5" y2="497" gradientUnits="userSpaceOnUse">
<stop stop-color="#AFFAFF"/>
<stop offset="1" stop-color="#3DDBE6"/>
</linearGradient>
<linearGradient id="paint1_linear_180_727" x1="256.5" y1="15" x2="256.5" y2="497" gradientUnits="userSpaceOnUse">
<stop stop-color="#AFFAFF"/>
<stop offset="1" stop-color="#3DDBE6"/>
</linearGradient>
</defs>
</svg>
